<mxfile><diagram name="C4-4 Code"><mxGraphModel><root><mxCell id="0"/><mxCell id="1" parent="0"/><mxCell id="2" value="app/EPG (Aggregates, Services, Events)" style="shape=rectangle;" vertex="1" parent="1"><mxGeometry x="40" y="100" width="300" height="60" as="geometry"/></mxCell><mxCell id="3" value="app/Catalog (Aggregates, Services, TMDb Client)" style="shape=rectangle;" vertex="1" parent="1"><mxGeometry x="40" y="200" width="340" height="60" as="geometry"/></mxCell><mxCell id="4" value="app/Community (User, Comment, Rating)" style="shape=rectangle;" vertex="1" parent="1"><mxGeometry x="40" y="300" width="280" height="60" as="geometry"/></mxCell><mxCell id="5" value="app/Search (Projectors, Event Handlers)" style="shape=rectangle;" vertex="1" parent="1"><mxGeometry x="40" y="400" width="320" height="60" as="geometry"/></mxCell><mxCell id="6" value="app/Identity (Auth, RBAC)" style="shape=rectangle;" vertex="1" parent="1"><mxGeometry x="40" y="500" width="260" height="60" as="geometry"/></mxCell><mxCell id="7" value="app/Admin (Admin API, Services)" style="shape=rectangle;" vertex="1" parent="1"><mxGeometry x="40" y="600" width="260" height="60" as="geometry"/></mxCell></root></mxGraphModel></diagram></mxfile>